<?xml version="1.0" encoding="UTF-8" standalone="no"?>
<svg
   xmlns:dc="http://purl.org/dc/elements/1.1/"
   xmlns:cc="http://creativecommons.org/ns#"
   xmlns:rdf="http://www.w3.org/1999/02/22-rdf-syntax-ns#"
   xmlns:svg="http://www.w3.org/2000/svg"
   xmlns="http://www.w3.org/2000/svg"
   xmlns:sodipodi="http://sodipodi.sourceforge.net/DTD/sodipodi-0.dtd"
   xmlns:inkscape="http://www.inkscape.org/namespaces/inkscape"
   version="1.1"
   width="11in"
   height="8.5in"
   viewBox="0 0 990 765"
   id="svg2"
   inkscape:version="0.91 r13725"
   sodipodi:docname="sign case.svg">
  <metadata
     id="metadata32">
    <rdf:RDF>
      <cc:Work
         rdf:about="">
        <dc:format>image/svg+xml</dc:format>
        <dc:type
           rdf:resource="http://purl.org/dc/dcmitype/StillImage" />
        <dc:title></dc:title>
      </cc:Work>
    </rdf:RDF>
  </metadata>
  <defs
     id="defs30" />
  <sodipodi:namedview
     pagecolor="#ffffff"
     bordercolor="#666666"
     borderopacity="1"
     objecttolerance="10"
     gridtolerance="10"
     guidetolerance="10"
     inkscape:pageopacity="0"
     inkscape:pageshadow="2"
     inkscape:window-width="1920"
     inkscape:window-height="1018"
     id="namedview28"
     showgrid="false"
     inkscape:document-units="in"
     inkscape:zoom="0.86779661"
     inkscape:cx="64.833525"
     inkscape:cy="336.23181"
     inkscape:window-x="-8"
     inkscape:window-y="-8"
     inkscape:window-maximized="1"
     inkscape:current-layer="svg2" />
  <!-- Front-->
  <g
     transform="translate(2.9101567,1.7382837)"
     id="g4">
    <polygon
       style="fill:none;stroke:#000000;stroke-width:0.09"
       points="79.875,0 79.875,5.625 97.875,5.625 97.875,0 115.875,0 115.875,5.625 133.875,5.625 133.875,0 151.875,0 151.875,5.625 182.8125,5.625 182.8125,0 213.75,0 213.75,20.25 208.125,20.25 208.125,40.5 213.75,40.5 213.75,60.75 208.125,60.75 208.125,81 213.75,81 213.75,101.25 182.8125,101.25 182.8125,95.625 151.875,95.625 151.875,101.25 133.875,101.25 133.875,95.625 115.875,95.625 115.875,101.25 97.875,101.25 97.875,95.625 79.875,95.625 79.875,101.25 61.875,101.25 61.875,95.625 30.9375,95.625 30.9375,101.25 0,101.25 0,81 5.625,81 5.625,60.75 0,60.75 0,40.5 5.625,40.5 5.625,20.25 0,20.25 0,0 30.9375,0 30.9375,5.625 61.875,5.625 61.875,0 "
       id="polygon6" />
  </g>
  <!-- Back-->
  <g
     transform="translate(216.66015,1.7382837)"
     id="g8">
    <polygon
       style="fill:none;stroke:#000000;stroke-width:0.09"
       points="79.875,0 79.875,5.625 97.875,5.625 97.875,0 115.875,0 115.875,5.625 133.875,5.625 133.875,0 151.875,0 151.875,5.625 182.8125,5.625 182.8125,0 213.75,0 213.75,20.25 208.125,20.25 208.125,40.5 213.75,40.5 213.75,60.75 208.125,60.75 208.125,81 213.75,81 213.75,101.25 182.8125,101.25 182.8125,95.625 151.875,95.625 151.875,101.25 133.875,101.25 133.875,95.625 115.875,95.625 115.875,101.25 97.875,101.25 97.875,95.625 79.875,95.625 79.875,101.25 61.875,101.25 61.875,95.625 30.9375,95.625 30.9375,101.25 0,101.25 0,81 5.625,81 5.625,60.75 0,60.75 0,40.5 5.625,40.5 5.625,20.25 0,20.25 0,0 30.9375,0 30.9375,5.625 61.875,5.625 61.875,0 "
       id="polygon10" />
  </g>
  <!-- Left-->
  <g
     transform="translate(430.41015,1.7382837)"
     id="g12">
    <polygon
       style="fill:none;stroke:#000000;stroke-width:0.09"
       points="68.625,0 68.625,5.625 86.625,5.625 86.625,0 104.625,0 104.625,5.625 122.625,5.625 122.625,0 140.625,0 140.625,5.625 165.9375,5.625 165.9375,0 185.625,0 185.625,20.25 191.25,20.25 191.25,40.5 185.625,40.5 185.625,60.75 191.25,60.75 191.25,81 185.625,81 185.625,101.25 165.9375,101.25 165.9375,95.625 140.625,95.625 140.625,101.25 122.625,101.25 122.625,95.625 104.625,95.625 104.625,101.25 86.625,101.25 86.625,95.625 68.625,95.625 68.625,101.25 50.625,101.25 50.625,95.625 25.3125,95.625 25.3125,101.25 5.625,101.25 5.625,81 0,81 0,60.75 5.625,60.75 5.625,40.5 0,40.5 0,20.25 5.625,20.25 5.625,0 25.3125,0 25.3125,5.625 50.625,5.625 50.625,0 "
       id="polygon14" />
  </g>
  <!-- Right-->
  <g
     transform="translate(430.41015,102.98828)"
     id="g16">
    <polygon
       style="fill:none;stroke:#000000;stroke-width:0.09"
       points="68.625,0 68.625,5.625 86.625,5.625 86.625,0 104.625,0 104.625,5.625 122.625,5.625 122.625,0 140.625,0 140.625,5.625 165.9375,5.625 165.9375,0 185.625,0 185.625,20.25 191.25,20.25 191.25,40.5 185.625,40.5 185.625,60.75 191.25,60.75 191.25,81 185.625,81 185.625,101.25 165.9375,101.25 165.9375,95.625 140.625,95.625 140.625,101.25 122.625,101.25 122.625,95.625 104.625,95.625 104.625,101.25 86.625,101.25 86.625,95.625 68.625,95.625 68.625,101.25 50.625,101.25 50.625,95.625 25.3125,95.625 25.3125,101.25 5.625,101.25 5.625,81 0,81 0,60.75 5.625,60.75 5.625,40.5 0,40.5 0,20.25 5.625,20.25 5.625,0 25.3125,0 25.3125,5.625 50.625,5.625 50.625,0 "
       id="polygon18" />
  </g>
  <!-- Top-->
  <g
     transform="translate(2.9101567,102.98828)"
     id="g20">
    <polygon
       style="fill:none;stroke:#000000;stroke-width:0.09"
       points="79.875,5.625 79.875,0 97.875,0 97.875,5.625 115.875,5.625 115.875,0 133.875,0 133.875,5.625 151.875,5.625 151.875,0 182.8125,0 182.8125,5.625 208.125,5.625 208.125,25.3125 213.75,25.3125 213.75,50.625 208.125,50.625 208.125,68.625 213.75,68.625 213.75,86.625 208.125,86.625 208.125,104.625 213.75,104.625 213.75,122.625 208.125,122.625 208.125,140.625 213.75,140.625 213.75,165.9375 208.125,165.9375 208.125,185.625 182.8125,185.625 182.8125,191.25 151.875,191.25 151.875,185.625 133.875,185.625 133.875,191.25 115.875,191.25 115.875,185.625 97.875,185.625 97.875,191.25 79.875,191.25 79.875,185.625 61.875,185.625 61.875,191.25 30.9375,191.25 30.9375,185.625 5.625,185.625 5.625,165.9375 0,165.9375 0,140.625 5.625,140.625 5.625,122.625 0,122.625 0,104.625 5.625,104.625 5.625,86.625 0,86.625 0,68.625 5.625,68.625 5.625,50.625 0,50.625 0,25.3125 5.625,25.3125 5.625,5.625 30.9375,5.625 30.9375,0 61.875,0 61.875,5.625 "
       id="polygon22" />
  </g>
  <!-- Bottom-->
  <g
     transform="translate(216.66015,102.98828)"
     id="g24">
    <polygon
       style="fill:none;stroke:#000000;stroke-width:0.09"
       points="79.875,5.625 79.875,0 97.875,0 97.875,5.625 115.875,5.625 115.875,0 133.875,0 133.875,5.625 151.875,5.625 151.875,0 182.8125,0 182.8125,5.625 208.125,5.625 208.125,25.3125 213.75,25.3125 213.75,50.625 208.125,50.625 208.125,68.625 213.75,68.625 213.75,86.625 208.125,86.625 208.125,104.625 213.75,104.625 213.75,122.625 208.125,122.625 208.125,140.625 213.75,140.625 213.75,165.9375 208.125,165.9375 208.125,185.625 182.8125,185.625 182.8125,191.25 151.875,191.25 151.875,185.625 133.875,185.625 133.875,191.25 115.875,191.25 115.875,185.625 97.875,185.625 97.875,191.25 79.875,191.25 79.875,185.625 61.875,185.625 61.875,191.25 30.9375,191.25 30.9375,185.625 5.625,185.625 5.625,165.9375 0,165.9375 0,140.625 5.625,140.625 5.625,122.625 0,122.625 0,104.625 5.625,104.625 5.625,86.625 0,86.625 0,68.625 5.625,68.625 5.625,50.625 0,50.625 0,25.3125 5.625,25.3125 5.625,5.625 30.9375,5.625 30.9375,0 61.875,0 61.875,5.625 "
       id="polygon26" />
  </g>
  <g
     id="g4170"
     transform="translate(-25.007345,-26.121936)">
    <rect
       transform="matrix(0,1,-1,0,0,0)"
       id="rect24"
       style="fill:none;stroke:#000000;stroke-width:0.09"
       ry="0"
       rx="0"
       height="37.799999"
       width="82.799988"
       y="-152.08719"
       x="167.58524" />
    <ellipse
       ry="5.8065257"
       rx="5.8065267"
       cy="287.51025"
       cx="133.18719"
       id="path4170"
       style="fill:none;fill-opacity:1;stroke:#000000;stroke-width:0.08694707;stroke-miterlimit:4;stroke-dasharray:none;stroke-opacity:1" />
    <rect
       y="262.44522"
       x="175.39719"
       height="38.700001"
       width="46.799999"
       id="rect4172"
       style="fill:none;fill-opacity:1;stroke:#000000;stroke-width:0.09;stroke-miterlimit:4;stroke-dasharray:none;stroke-opacity:1" />
  </g>
  <rect
     style="fill:none;fill-opacity:1;stroke:#000000;stroke-width:0.09433645;stroke-miterlimit:4;stroke-dasharray:none;stroke-opacity:1"
     id="rect4168"
     width="98.905663"
     height="17.995663"
     x="229.18515"
     y="16.43869" />
</svg>
